<svg xmlns="http://www.w3.org/2000/svg" viewBox="0 0 64 64"><defs><style>.cls-1{fill:#231f20;}</style></defs><title>Earth Corona</title><g id="Earth_Corona" data-name="Earth Corona"><path class="cls-1" d="M60,28a4,4,0,0,0-3.86,3H55a23,23,0,0,0-2.58-9.62l1.06-.61a3,3,0,0,0,1.94.73A3,3,0,0,0,58,17a3,3,0,0,0-5.54,2l-1,.61a22.85,22.85,0,0,0-7-7L45,11.55a3.33,3.33,0,0,0,.54.07,3,3,0,0,0,2.6-1.5h0a3,3,0,1,0-4.87.44l-.61,1A23,23,0,0,0,33,9V7.86a4,4,0,1,0-2,0V9a23,23,0,0,0-9.62,2.58l-.61-1a3,3,0,0,0,.33-3.44h0a3,3,0,1,0-2.6,4.5,3.33,3.33,0,0,0,.54-.07l.61,1.06a22.85,22.85,0,0,0-7,7l-1-.61A3,3,0,0,0,6,17a3,3,0,0,0,2.59,4.5,3,3,0,0,0,1.94-.73l1.06.61A23,23,0,0,0,9,31H7.86a4,4,0,1,0,0,2H9a23,23,0,0,0,2.58,9.62l-1,.61a3,3,0,0,0-3.44-.33h0a3,3,0,0,0,1.5,5.6,3,3,0,0,0,1.5-.4A3,3,0,0,0,11.56,45l1-.61a23,23,0,0,0,7,7l-.61,1a3,3,0,0,0-3.14,1.44,3,3,0,0,0-.3,2.28,3,3,0,0,0,5.5.72h0a3,3,0,0,0-.33-3.44l.61-1A23,23,0,0,0,31,55v1.17a4,4,0,1,0,2,0V55a23,23,0,0,0,9.62-2.58l.61,1a3,3,0,1,0,1.73-1l-.61-1a23,23,0,0,0,7-7l1,.61a3,3,0,0,0,1.44,3.14,3,3,0,0,0,2.28.3,3,3,0,0,0,.72-5.5h0a3,3,0,0,0-3.44.33l-1-.61A23,23,0,0,0,55,33h1.17A4,4,0,1,0,60,28ZM54.88,17.63h0a1,1,0,0,1,.5-.13,1.09,1.09,0,0,1,.26,0,1,1,0,0,1,.61.47,1,1,0,0,1,.1.76,1,1,0,0,1-.47.61A1,1,0,0,1,54.52,19,1,1,0,0,1,54.88,17.63ZM44.63,8.12a1,1,0,0,1,1.74,1,1,1,0,0,1-1.74-1ZM30,4a2,2,0,1,1,2,2A2,2,0,0,1,30,4ZM17.63,9.12a1,1,0,0,1,1.74-1A1,1,0,0,1,19,9.48,1,1,0,0,1,17.63,9.12ZM8.12,19.37a1,1,0,0,1-.47-.61,1,1,0,0,1,.1-.76,1,1,0,0,1,.61-.47,1.09,1.09,0,0,1,.26,0,1,1,0,0,1,.5.13h0A1,1,0,0,1,9.48,19,1,1,0,0,1,8.12,19.37ZM4,34a2,2,0,1,1,2-2A2,2,0,0,1,4,34ZM9.12,46.37a1,1,0,1,1-1-1.74A1,1,0,0,1,9.48,45h0A1,1,0,0,1,9.12,46.37Zm10.25,9.51a1,1,0,0,1-1.37.37,1,1,0,0,1-.47-.61,1,1,0,0,1,.1-.76A1,1,0,0,1,19,54.52,1,1,0,0,1,19.37,55.88ZM34,60a2,2,0,1,1-2-2A2,2,0,0,1,34,60Zm12.37-5.12a1,1,0,0,1,.1.76,1,1,0,0,1-.47.61,1,1,0,0,1-1.37-.37A1,1,0,0,1,45,54.52h0a1,1,0,0,1,1.37.36Zm9-10.38a1,1,0,0,1,.5.13A1,1,0,0,1,56.25,46a1,1,0,0,1-.61.47A1,1,0,0,1,54.52,45,1,1,0,0,1,55.38,44.5Zm-5.2-2h0a20.9,20.9,0,0,1-6.83,7.16l-.48-.84a1,1,0,0,0-1.74,1l.49.84a20.94,20.94,0,0,1-19.24,0l.48-.84a1,1,0,1,0-1.74-1l-.48.83a20.93,20.93,0,0,1-6.82-7.15h0A21,21,0,0,1,11,33h1a1,1,0,0,0,0-2H11a21,21,0,0,1,9.62-16.66l.48.85a1,1,0,1,0,1.74-1l-.49-.85a20.94,20.94,0,0,1,19.24,0l-.49.84a1,1,0,0,0,1.74,1l.48-.84a20.9,20.9,0,0,1,6.83,7.16h0A21,21,0,0,1,53,31H52a1,1,0,0,0,0,2h1A20.84,20.84,0,0,1,50.18,42.5ZM60,34a2,2,0,1,1,2-2A2,2,0,0,1,60,34Z"/><path class="cls-1" d="M48.55,24.92a11.89,11.89,0,0,0-.53-1.1v0h0a18,18,0,0,0-10.33-8.86,1.47,1.47,0,0,0-.29-.09A17.64,17.64,0,0,0,32,14c-.47,0-.94,0-1.41.05l-.43,0c-.32,0-.65.07-1,.12s-.36.07-.54.1l-.83.16-.53.15c-.27.07-.54.14-.8.23S26.15,15,26,15l-.78.29c-.18.07-.34.16-.51.23s-.51.22-.76.35l-.51.28-.7.4c-.18.1-.35.23-.52.34l-.62.41-.07.05A18,18,0,0,0,14,32a19.09,19.09,0,0,0,.23,2.86l0,.18a17.85,17.85,0,0,0,3.52,8l.31.39A18.09,18.09,0,0,0,32,50,18.08,18.08,0,0,0,49.79,34.72c0-.24.07-.49.11-.77.07-.71.1-1.35.1-2a17.7,17.7,0,0,0-1.42-7Zm-2.15.13c.1.19.2.39.28.58l0,.09a13.07,13.07,0,0,1,.51,1.36c.05.14.09.29.13.43.1.33.19.67.26,1,0,.15.07.31.1.47.07.36.12.73.17,1.11,0,.12,0,.23,0,.35a.49.49,0,0,1,0,.12A11.74,11.74,0,0,0,46.06,30a15.53,15.53,0,0,1-4.51-1.79c-.81-.54-.85-.82-.85-.83,0-.19.5-.75.82-1.08a8.21,8.21,0,0,0,1.38-1.82c0-.07.21-.14.57-.14A8.55,8.55,0,0,1,46.4,25.05ZM36.27,19.56a7.69,7.69,0,0,1,.78.11C36.38,21,36.32,21,34,21c-2.58,0-2.79,2.22-2.91,3.41-.09.93-.17,1.51-.54,1.7A1.79,1.79,0,0,1,28.88,26a2.17,2.17,0,0,0-2.59.26c-1.07,1.08,0,2.2.5,2.74a8.87,8.87,0,0,1,.79.92c-.89-.55-1.91-1.06-2.87-1.55a15,15,0,0,1-2-1.07,6.23,6.23,0,0,1,.45-2.13A14.85,14.85,0,0,0,24,21a6,6,0,0,0-.57-2.49l.17-.11.41-.25.62-.34.45-.23.63-.28.46-.2.64-.23.48-.16.67-.19.48-.12.71-.14.46-.08c.26,0,.52-.07.79-.09l.4,0c.39,0,.8-.05,1.2-.05s.94,0,1.41.07l.46.05c.31,0,.62.08.92.14l.26,0A2.11,2.11,0,0,0,34,18C34,19.3,35.42,19.46,36.27,19.56Zm-1.6,24.36a3,3,0,0,0-.94,1.95A3.06,3.06,0,0,1,33,44a16,16,0,0,1,.15-2c.18-1.45.34-2.82-1.7-3.84a4.43,4.43,0,0,1-2-3,1.86,1.86,0,0,1,.19-1.3c1-.46,3.53-1.25,4.67-.1a7.54,7.54,0,0,0,4.06,1.73c.56.11,1.51.3,1.65.56,0,2-1,5.4-2.45,6.11A11,11,0,0,0,34.67,43.92ZM16.54,36.11a6.12,6.12,0,0,1,2.75,1.6c1.57,1.57,3.06,3,3.09,3.47a.63.63,0,0,1-.08.11,5.92,5.92,0,0,1-1.83.31l-1.17.12A15.9,15.9,0,0,1,16.54,36.11ZM24,45.84a15.52,15.52,0,0,1-3-2.28,4.33,4.33,0,0,0,2.74-.85,2.16,2.16,0,0,0,.12-3,27.35,27.35,0,0,0-3.12-3.41A8.34,8.34,0,0,0,16.14,34,14.73,14.73,0,0,1,16,32a16,16,0,0,1,5.76-12.28A3.86,3.86,0,0,1,22,21a13,13,0,0,1-.73,3.62c-.51,1.67-.95,3.12,0,4.09a11.12,11.12,0,0,0,2.52,1.48c.94.47,3.63,1.82,4.11,2.6a3.65,3.65,0,0,0-.46,2.64,6.38,6.38,0,0,0,3.09,4.46c.79.4.78.45.61,1.82A18.58,18.58,0,0,0,31,44a5.26,5.26,0,0,0,2,4c-.33,0-.66,0-1,0A15.74,15.74,0,0,1,24,45.84Zm12.16,1.6a2.27,2.27,0,0,0-.27-.89.88.88,0,0,1,.19-1.22,10.21,10.21,0,0,1,2.37-1.44C41,42.64,42,38.13,42,36c0-1.88-1.89-2.25-3.26-2.52a5.88,5.88,0,0,1-3-1.19c-1.59-1.58-4-1.26-5.56-.79a5.48,5.48,0,0,0-1.53-3.44,3.44,3.44,0,0,0,2.83-.17c1.38-.69,1.52-2.19,1.63-3.28.15-1.56.29-1.61.92-1.61,3.21,0,3.67-.09,4.89-2.55A1.82,1.82,0,0,0,39,18.68a2.75,2.75,0,0,0-2.3-1.09,7.57,7.57,0,0,0,.72-.64,16,16,0,0,1,7.43,5.52c-1.9-.4-3.15,0-3.71,1.08a6.44,6.44,0,0,1-1,1.34,3.52,3.52,0,0,0-1.35,2.68,3.42,3.42,0,0,0,1.74,2.26,17.06,17.06,0,0,0,5.08,2.06,12,12,0,0,1,1.5.46,4.86,4.86,0,0,0,.82,1.76,2.89,2.89,0,0,1,0,.29A16.08,16.08,0,0,1,36.16,47.44Z"/></g></svg>